<?xml version="1.0" encoding="utf-8"?>
<!-- Generator: Adobe Illustrator 18.0.0, SVG Export Plug-In . SVG Version: 6.00 Build 0)  -->
<!DOCTYPE svg PUBLIC "-//W3C//DTD SVG 1.1//EN" "http://www.w3.org/Graphics/SVG/1.1/DTD/svg11.dtd">
<svg version="1.1" id="Layer_1" xmlns="http://www.w3.org/2000/svg" xmlns:xlink="http://www.w3.org/1999/xlink" x="0px" y="0px"
	 viewBox="-14.7 -14.7 45.4 45.4" enable-background="new -14.7 -14.7 45.4 45.4" xml:space="preserve">
<g>
	<path fill="#D22856" d="M8-9c9.4,0,17,7.6,17,17S17.4,25,8,25C-1.4,25-9,17.4-9,8S-1.4-9,8-9 M8-14.7C-4.5-14.7-14.7-4.5-14.7,8
		c0,12.5,10.2,22.7,22.7,22.7c12.5,0,22.7-10.2,22.7-22.7C30.7-4.5,20.5-14.7,8-14.7L8-14.7z"/>
	<path fill="#D22856" d="M8,19.8c6.7,0,12.1-5.4,12.1-12.1C20.1,1,14.7-4.4,8-4.4"/>
</g>
</svg>
