<svg xmlns="http://www.w3.org/2000/svg" xmlns:xlink="http://www.w3.org/1999/xlink" x="0px" y="0px"
  width="31.92px" height="31.92px" viewBox="0 0 31.92 31.92" enable-background="new 0 0 31.92 31.92" xml:space="preserve">
<path d="M15.96,4c6.595,0,11.96,5.365,11.96,11.96s-5.365,11.959-11.96,11.959S4,22.555,4,15.959S9.365,4,15.96,4 M15.96,0
  C7.146,0,0,7.145,0,15.959c0,8.813,7.146,15.959,15.96,15.959s15.96-7.146,15.96-15.959C31.921,7.145,24.774,0,15.96,0L15.96,0z"/>
<path d="M15.96,24.29c4.707,0,8.52-3.813,8.52-8.52c0-4.705-3.813-8.519-8.52-8.519"/>
</svg>
