<?xml version="1.0" encoding="utf-8"?>
<!-- Generator: Adobe Illustrator 15.1.0, SVG Export Plug-In . SVG Version: 6.00 Build 0)  -->
<!DOCTYPE svg PUBLIC "-//W3C//DTD SVG 1.1//EN" "http://www.w3.org/Graphics/SVG/1.1/DTD/svg11.dtd">
<svg version="1.1" id="Layer_2" xmlns="http://www.w3.org/2000/svg" xmlns:xlink="http://www.w3.org/1999/xlink" x="0px" y="0px"
	 width="146.3px" height="40.375px" viewBox="0 0 146.3 40.375" enable-background="new 0 0 146.3 40.375" xml:space="preserve">
<metadata><?xpacket begin="﻿" id="W5M0MpCehiHzreSzNTczkc9d"?>
<x:xmpmeta xmlns:x="adobe:ns:meta/" x:xmptk="Adobe XMP Core 5.0-c060 61.134777, 2010/02/12-17:32:00        ">
   <rdf:RDF xmlns:rdf="http://www.w3.org/1999/02/22-rdf-syntax-ns#">
      <rdf:Description rdf:about=""
            xmlns:xmpMM="http://ns.adobe.com/xap/1.0/mm/"
            xmlns:stRef="http://ns.adobe.com/xap/1.0/sType/ResourceRef#"
            xmlns:stEvt="http://ns.adobe.com/xap/1.0/sType/ResourceEvent#">
         <xmpMM:RenditionClass>proof:pdf</xmpMM:RenditionClass>
         <xmpMM:DocumentID>xmp.did:9F4F1C68CA1FE911A00CD1F6893C84F1</xmpMM:DocumentID>
         <xmpMM:InstanceID>xmp.iid:9F4F1C68CA1FE911A00CD1F6893C84F1</xmpMM:InstanceID>
         <xmpMM:OriginalDocumentID>uuid:2dc630f5-20ea-9443-a488-dd77efc5a465</xmpMM:OriginalDocumentID>
         <xmpMM:DerivedFrom rdf:parseType="Resource">
            <stRef:instanceID>uuid:166ceba9-b8be-2b40-815f-bf5dd1069c9b</stRef:instanceID>
            <stRef:documentID>uuid:2dc630f5-20ea-9443-a488-dd77efc5a465</stRef:documentID>
            <stRef:originalDocumentID>uuid:2dc630f5-20ea-9443-a488-dd77efc5a465</stRef:originalDocumentID>
            <stRef:renditionClass>proof:pdf</stRef:renditionClass>
         </xmpMM:DerivedFrom>
         <xmpMM:History>
            <rdf:Seq>
               <rdf:li rdf:parseType="Resource">
                  <stEvt:action>saved</stEvt:action>
                  <stEvt:instanceID>xmp.iid:9F4F1C68CA1FE911A00CD1F6893C84F1</stEvt:instanceID>
                  <stEvt:when>2019-01-24T14:35:51+03:00</stEvt:when>
                  <stEvt:softwareAgent>Adobe Illustrator CS5.1</stEvt:softwareAgent>
                  <stEvt:changed>/</stEvt:changed>
               </rdf:li>
            </rdf:Seq>
         </xmpMM:History>
      </rdf:Description>
      <rdf:Description rdf:about=""
            xmlns:xmp="http://ns.adobe.com/xap/1.0/"
            xmlns:xmpGImg="http://ns.adobe.com/xap/1.0/g/img/">
         <xmp:CreateDate>2019-01-24T14:35:50+03:00</xmp:CreateDate>
         <xmp:CreatorTool>Adobe Illustrator CS5.1</xmp:CreatorTool>
         <xmp:ModifyDate>2019-01-24T14:35:51+03:00</xmp:ModifyDate>
         <xmp:MetadataDate>2019-01-24T14:35:51+03:00</xmp:MetadataDate>
         <xmp:Thumbnails>
            <rdf:Alt>
               <rdf:li rdf:parseType="Resource">
                  <xmpGImg:width>256</xmpGImg:width>
                  <xmpGImg:height>72</xmpGImg:height>
                  <xmpGImg:format>JPEG</xmpGImg:format>
                  <xmpGImg:image>/9j/4AAQSkZJRgABAgEASABIAAD/7QAsUGhvdG9zaG9wIDMuMAA4QklNA+0AAAAAABAASAAAAAEA&#xA;AQBIAAAAAQAB/+4ADkFkb2JlAGTAAAAAAf/bAIQABgQEBAUEBgUFBgkGBQYJCwgGBggLDAoKCwoK&#xA;DBAMDAwMDAwQDA4PEA8ODBMTFBQTExwbGxscHx8fHx8fHx8fHwEHBwcNDA0YEBAYGhURFRofHx8f&#xA;Hx8fHx8fHx8fHx8fHx8fHx8fHx8fHx8fHx8fHx8fHx8fHx8fHx8fHx8fHx8f/8AAEQgASAEAAwER&#xA;AAIRAQMRAf/EAaIAAAAHAQEBAQEAAAAAAAAAAAQFAwIGAQAHCAkKCwEAAgIDAQEBAQEAAAAAAAAA&#xA;AQACAwQFBgcICQoLEAACAQMDAgQCBgcDBAIGAnMBAgMRBAAFIRIxQVEGE2EicYEUMpGhBxWxQiPB&#xA;UtHhMxZi8CRygvElQzRTkqKyY3PCNUQnk6OzNhdUZHTD0uIIJoMJChgZhJRFRqS0VtNVKBry4/PE&#xA;1OT0ZXWFlaW1xdXl9WZ2hpamtsbW5vY3R1dnd4eXp7fH1+f3OEhYaHiImKi4yNjo+Ck5SVlpeYmZ&#xA;qbnJ2en5KjpKWmp6ipqqusra6voRAAICAQIDBQUEBQYECAMDbQEAAhEDBCESMUEFURNhIgZxgZEy&#xA;obHwFMHR4SNCFVJicvEzJDRDghaSUyWiY7LCB3PSNeJEgxdUkwgJChgZJjZFGidkdFU38qOzwygp&#xA;0+PzhJSktMTU5PRldYWVpbXF1eX1RlZmdoaWprbG1ub2R1dnd4eXp7fH1+f3OEhYaHiImKi4yNjo&#xA;+DlJWWl5iZmpucnZ6fkqOkpaanqKmqq6ytrq+v/aAAwDAQACEQMRAD8A9U4q7FXYq7FXYq7FXYq7&#xA;FXYq7FXYq7FXYq7FXYq7FXYq7FXYq7FXYq7FXYq7FXYq7FXYq7FXYq7FXYq7FXYq7FXYq7FXYq7F&#xA;XYq7FXYq7FXYq7FXYq7FXYq7FXYq7FXYq7FUg81+ctJ8uHT1vplja+uUgUE7qhPxynfZV2qcBNOd&#xA;otBk1HFwj6Y3+xP1ZWUMpBUioI3BBwuCQ7FXYq7FXYq7FXYq7FXYq7FXYq7FXYq7FXYq7FXYq7FX&#xA;Yq7FXYqhdK1K11PTre/tHD29wgdGG/zH0HbFtzYpY5mMuYRWLU7FXYq7FXYq7FXYq7FXEVFPHFXl&#xA;n5jflDBrOpWWo6dNLHPcXEcGo+rI8wETf7tUyMzAr041ofbvAxel7K7bOKEoTAoAmNCt+7b72f8A&#xA;l3y5p2gadFYWBl9CJQo9WWSTp1NGJVa/5IAyQDo9Vqp55mUqs9wA/HxTTC4zsVdirsVdirsVdirs&#xA;VdirsVdirsVdirsVdirsVdiqjPeW1vLbxTSBJLqQxQKTQs4RpCB/sYycWccZkCR/Dufu/SrYsHnn&#xA;5t3Xn6LQLk6NDCumlGF9LC7vdiL9ohSqqq8ftcakfjkZW73sSGlOUeITx9L+m/xyYr+Rtz59+qvF&#xA;aQwy+W1kJ5XbNHxk6uIGUO2/eq8a+9aiNuz9oYaXiuRIy+X6fxb20VoK7HuBvk3j3Yq7FXYq7FXY&#xA;q7FXYq7FXYq7FXYq7FXYq7FXYq7FXYq7FXYq7FXYq7FXYq7FXYq7FXYq858/fl7rmueYdGvrTWbm&#xA;OGOeki/CPqoCmT1YfTCUJ9Pj8VTUjemRId/2b2njw4pxlCN1/pulG/ffzeg2kDwW6QvPJcsgAM0v&#xA;Dm1O7cFRa/RknRTlxGwK9yqyqylWAKkUIO4IOLEFBaJpFpo+lW2mWaBLe2TiijbcmrH6WJOIbtRn&#xA;llmZy5lG4tLsVdirsVdirsVdirsVdirsVdirsVdirsVdirsVdirsVdirsVdirsVdirsVdirsVdir&#xA;sVdirsVdirsVdirsVdirsVdirsVdirsVdirsVdirsVdirsVdirsVdirsVdirsVdirsVaZ0TjyYLy&#xA;PFa7VPhikC28UOxV2KuxV2KuxV2KuxV2KuxV2KuxV2KuxV2KuxV2KuxV2KuxV2KuxV2KuxV2KuxV&#xA;2KuxV2KuxV2KvOfzP0/8wbi90dtCuohaLeR8I0Qo8c2/CSZiXDxqK1oB7g5GVu/7Iy6WMZ+KDxcJ&#xA;+I7h3H8Wz7T01BLOJdQlimuwo9WSBGjjLU34qzOfxyTpMpiZHgBEfPf9SIxa3Yq7FXYq7FXYq7FX&#xA;Yq7FXYq7FXYq7FXYq7FXYq7FXYq7FXYq7FXYq7FXYq7FXYq7FXYq7FXYq6gNK9umKuxV2KuxV2Ku&#xA;xV2KuxV2KuxV2KuxV2KuxV2KuxV2KuxV2KuxV2KuxV2KuxV2KuxV2KuxV2KuxV2Kv//Z</xmpGImg:image>
               </rdf:li>
            </rdf:Alt>
         </xmp:Thumbnails>
      </rdf:Description>
      <rdf:Description rdf:about=""
            xmlns:pdf="http://ns.adobe.com/pdf/1.3/">
         <pdf:Producer>Adobe PDF library 9.90</pdf:Producer>
      </rdf:Description>
      <rdf:Description rdf:about=""
            xmlns:dc="http://purl.org/dc/elements/1.1/">
         <dc:format>image/svg+xml</dc:format>
      </rdf:Description>
      <rdf:Description rdf:about=""
            xmlns:xmpTPg="http://ns.adobe.com/xap/1.0/t/pg/"
            xmlns:stDim="http://ns.adobe.com/xap/1.0/sType/Dimensions#"
            xmlns:xmpG="http://ns.adobe.com/xap/1.0/g/">
         <xmpTPg:MaxPageSize rdf:parseType="Resource">
            <stDim:w>51.611492</stDim:w>
            <stDim:h>14.243403</stDim:h>
            <stDim:unit>Millimeters</stDim:unit>
         </xmpTPg:MaxPageSize>
         <xmpTPg:NPages>1</xmpTPg:NPages>
         <xmpTPg:HasVisibleTransparency>False</xmpTPg:HasVisibleTransparency>
         <xmpTPg:HasVisibleOverprint>False</xmpTPg:HasVisibleOverprint>
         <xmpTPg:PlateNames>
            <rdf:Seq>
               <rdf:li>Cyan</rdf:li>
               <rdf:li>Magenta</rdf:li>
               <rdf:li>Yellow</rdf:li>
               <rdf:li>Black</rdf:li>
            </rdf:Seq>
         </xmpTPg:PlateNames>
         <xmpTPg:SwatchGroups>
            <rdf:Seq>
               <rdf:li rdf:parseType="Resource">
                  <xmpG:groupName>Группа образцов по умолчанию</xmpG:groupName>
                  <xmpG:groupType>0</xmpG:groupType>
               </rdf:li>
            </rdf:Seq>
         </xmpTPg:SwatchGroups>
      </rdf:Description>
   </rdf:RDF>
</x:xmpmeta>
                                                                                                    
                                                                                                    
                                                                                                    
                                                                                                    
                                                                                                    
                                                                                                    
                                                                                                    
                                                                                                    
                                                                                                    
                                                                                                    
                                                                                                    
                                                                                                    
                                                                                                    
                                                                                                    
                                                                                                    
                                                                                                    
                                                                                                    
                                                                                                    
                                                                                                    
                                                                                                    
                           
<?xpacket end="w"?>
	</metadata>
<g>
	<path fill="#FFFFFF" d="M71.874,18.661c0-0.708,0.58-1.288,1.256-1.288h7.18c5.087,0,8.436,2.704,8.436,7.146v0.063
		c0,4.86-4.057,7.373-8.854,7.373h-5.475v6.825c0,0.708-0.58,1.287-1.289,1.287c-0.676,0-1.256-0.58-1.256-1.287L71.874,18.661
		L71.874,18.661z M79.988,29.641c3.734,0,6.182-1.996,6.182-4.959v-0.063c0-3.221-2.414-4.894-6.053-4.894h-5.699v9.917h5.57V29.641
		z"/>
	<path fill="#FFFFFF" d="M93.603,18.5c0-0.708,0.579-1.288,1.255-1.288c0.709,0,1.288,0.58,1.288,1.288v20.283
		c0,0.708-0.579,1.287-1.288,1.287c-0.676,0-1.255-0.579-1.255-1.287V18.5z"/>
	<path fill="#FFFFFF" d="M102.744,18.532c0-0.676,0.58-1.256,1.256-1.256h0.354c0.58,0,0.935,0.29,1.288,0.74l13.684,17.45V18.468
		c0-0.676,0.547-1.256,1.256-1.256c0.676,0,1.225,0.58,1.225,1.256v20.349c0,0.677-0.48,1.19-1.158,1.19h-0.129
		c-0.548,0-0.936-0.321-1.318-0.772l-13.976-17.867v17.449c0,0.677-0.547,1.257-1.257,1.257c-0.676,0-1.223-0.58-1.223-1.257V18.532
		H102.744z"/>
	<path fill="#FFFFFF" d="M128.173,18.5c0-0.708,0.58-1.288,1.257-1.288c0.708,0,1.286,0.58,1.286,1.288v12.331l12.848-13.168
		c0.29-0.257,0.579-0.451,0.998-0.451c0.676,0,1.225,0.612,1.225,1.256c0,0.354-0.162,0.644-0.42,0.901l-7.984,7.92l8.564,10.561
		c0.225,0.291,0.354,0.547,0.354,0.936c0,0.676-0.577,1.288-1.285,1.288c-0.482,0-0.807-0.259-1.03-0.58l-8.401-10.464l-4.863,4.861
		v4.895c0,0.708-0.578,1.288-1.286,1.288c-0.677,0-1.257-0.58-1.257-1.288V18.5H128.173z"/>
</g>
<path fill="#D22856" d="M98.498,9.875c-2.002,0-3.623-1.623-3.623-3.624c0,2.001-1.623,3.624-3.625,3.624
	c2.002,0,3.625,1.623,3.625,3.624C94.875,11.498,96.496,9.875,98.498,9.875z"/>
<g>
	<path fill="#FFFFFF" d="M43.094,19.313c0.246,0,0.489,0.014,0.73,0.033c-0.437-0.728-1.227-1.221-2.136-1.221
		c-0.877,0-1.614-0.568-1.884-1.354c-0.727,0.208-1.425,0.482-2.089,0.816c0.062,0.017,0.122,0.038,0.188,0.038c1.104,0,2,0.896,2,2
		c0,0.096-0.015,0.188-0.028,0.281C40.875,19.524,41.959,19.313,43.094,19.313z"/>
	<path fill="#FFFFFF" d="M60.462,28.016c-0.002-0.009-5.175-21.365-5.175-21.365C54.926,4.303,52.694,0,46.688,0
		c-0.829,0-1.5,0.671-1.5,1.5s0.671,1.5,1.5,1.5c4.856,0,5.575,3.729,5.639,4.143l4.767,19.701h-2.073
		c-0.445-3.557-2.453-6.628-5.305-8.522c-0.897,0.379-1.529,1.269-1.529,2.303c0,0.088-0.015,0.171-0.026,0.256
		c1.991,1.358,3.415,3.489,3.829,5.965c0.082,0.488,0.135,0.987,0.135,1.5c0,0.512-0.053,1.012-0.135,1.5
		c-0.716,4.271-4.421,7.53-8.896,7.53c-4.475,0-8.181-3.259-8.896-7.53c-0.082-0.488-0.135-0.988-0.135-1.5
		c0-0.513,0.053-1.012,0.135-1.5c0.147-0.879,0.427-1.712,0.808-2.484c-1.034-0.077-1.852-0.932-1.852-1.984
		c0-0.189-0.077-0.357-0.192-0.488c-0.938,1.469-1.569,3.149-1.795,4.957h-1.82c-0.741-5.927-5.802-10.531-11.927-10.531
		S6.235,20.917,5.493,26.844H3.42L8.187,7.143C8.25,6.729,8.97,3,13.826,3c0.829,0,1.5-0.671,1.5-1.5S14.655,0,13.826,0
		C7.82,0,5.588,4.303,5.227,6.651c0,0-5.173,21.356-5.175,21.365c-0.266,1.109,0.531,1.826,1.426,1.826
		c0.012,0,0.023,0.004,0.036,0.004h3.982c0.079,0.629,0.215,1.237,0.387,1.831c0.059-0.106,0.102-0.224,0.102-0.354
		c0-1.104,0.896-2,2-2c0.166,0,0.324,0.024,0.478,0.063c-0.043-0.343-0.074-0.688-0.074-1.042c0-0.512,0.053-1.011,0.135-1.5
		c0.715-4.271,4.421-7.531,8.896-7.531s8.18,3.26,8.896,7.531c0.082,0.489,0.135,0.988,0.135,1.5s-0.053,1.012-0.135,1.5
		c-0.715,4.272-4.421,7.531-8.896,7.531c-2.022,0-3.883-0.67-5.386-1.794c-0.35,0.302-0.8,0.491-1.299,0.491
		c-0.413,0-0.749,0.336-0.749,0.748c0,0.289-0.065,0.563-0.176,0.812c2.075,1.708,4.722,2.743,7.614,2.743
		c6.125,0,11.185-4.604,11.927-10.529h1.814c0.742,5.926,5.802,10.529,11.927,10.529s11.186-4.604,11.927-10.529H59
		c0.012,0,0.023-0.005,0.036-0.005C59.931,29.842,60.728,29.125,60.462,28.016z"/>
</g>
<g>
	<g>
		<path fill="#D22856" d="M50.686,16.125c-2.485,0-4.499-2.014-4.499-4.499c0,2.485-2.014,4.499-4.499,4.499
			c2.485,0,4.499,2.014,4.499,4.499C46.187,18.139,48.2,16.125,50.686,16.125z"/>
	</g>
</g>
<g>
	<g>
		<path fill="#D22856" d="M37.904,19.626c-1.519,0-2.749-1.23-2.749-2.749c0,1.519-1.23,2.749-2.749,2.749
			c1.519,0,2.749,1.229,2.749,2.749C35.155,20.855,36.386,19.626,37.904,19.626z"/>
	</g>
</g>
<g>
	<g>
		<path fill="#D22856" d="M10.734,34.072c-1.519,0-2.749-1.23-2.749-2.75c0,1.52-1.23,2.75-2.749,2.75
			c1.519,0,2.749,1.229,2.749,2.748C7.985,35.303,9.215,34.072,10.734,34.072z"/>
	</g>
</g>
</svg>
